#!OML:ASF E:\emotionWalksFemale\Project 1\Capture day 1\Session 1\Female1.ASF
:FULLY-SPECIFIED
:DEGREES
208
root 8.63671 19.6589 0.780995 -168.437 1.04902 -177.021
lowerback 24.5659 1.25561 2.31769
upperback 0.122811 2.55241 -0.32535
thorax -13.5692 1.1008 -2.63693
lowerneck -8.78793 -2.80447 -6.19338
upperneck 12.9467 -3.72168 4.1746
head 5.54017 -1.9081 2.03857
rclavicle 2.4202e-014 -6.65929e-015
rhumerus 14.4215 6.22884 -3.99032
rradius 83.0895
rwrist -32.2294
rhand 2.43256 -41.3434
rfingers 7.12502
rthumb 27.9182 -69.288
lclavicle 2.4202e-014 -6.65929e-015
lhumerus 17.7153 11.6086 2.68656
lradius 87.6233
lwrist 35.4531
lhand -13.6244 -55.6936
lfingers 7.12502
lthumb 12.4913 -26.0869
rfemur -25.7981 16.7267 16.5049
rtibia 0
rfoot -36.2271 -29.29
rtoes 67.1571
lfemur -38.5995 -31.232 -1.21814
ltibia 21.0427
lfoot -47.0191 21.0827
ltoes 67.5368
209
root 8.63732 19.4756 0.617775 -168.803 0.905236 -176.911
lowerback 24.8594 1.23744 2.35376
upperback 0.476862 2.60567 -0.195336
thorax -13.3206 1.15704 -2.53406
lowerneck -8.99127 -2.78688 -6.04574
upperneck 12.7328 -3.63451 3.84953
head 5.49548 -1.86989 1.91727
rclavicle 2.03754e-014 -2.98177e-015
rhumerus 11.8084 9.18581 -3.96411
rradius 82.8585
rwrist -32.3845
rhand 2.01954 -41.7857
rfingers 7.12502
rthumb 27.5233 -69.7939
lclavicle 2.03754e-014 -2.98177e-015
lhumerus 17.1918 8.53938 1.26358
lradius 86.9886
lwrist 34.3632
lhand -13.9512 -56.6019
lfingers 7.12502
lthumb 12.1761 -26.9762
rfemur -26.0256 16.6969 16.4814
rtibia 2.06736e-014
rfoot -35.376 -30.1879
rtoes 66.9168
lfemur -38.8796 -31.2029 -0.779406
ltibia 20.7331
lfoot -46.3055 22.2808
ltoes 66.9949
210
root 8.64127 19.2802 0.452511 -169.148 0.731267 -176.793
lowerback 25.1536 1.26903 2.42229
upperback 0.738778 2.72232 -0.107949
thorax -13.1731 1.23156 -2.52314
lowerneck -8.52807 -2.76123 -6.06695
upperneck 12.1172 -3.59093 3.84894
head 5.22368 -1.84503 1.93079
rclavicle -9.44227e-016 -2.78299e-015
rhumerus 8.77575 12.1429 -4.33009
rradius 82.6658
rwrist -32.7774
rhand 2.0379 -42.3088
rfingers 7.12502
rthumb 27.5408 -70.3143
lclavicle -9.44227e-016 -2.78299e-015
lhumerus 13.1696 5.40607 0.778584
lradius 89.8117
lwrist 32.8009
lhand -14.0928 -57.3559
lfingers 7.12502
lthumb 12.0396 -27.7222
rfemur -26.3106 16.6441 16.5238
rtibia -9.54166e-015
rfoot -32.5677 -33.1333
rtoes 65.9779
lfemur -39.1021 -31.0313 -0.410904
ltibia 20.3038
lfoot -45.2037 23.7434
ltoes 66.3984
211
root 8.64394 19.0707 0.284787 -169.463 0.604037 -176.837
lowerback 25.4606 1.35561 2.32979
upperback 1.02803 2.8656 -0.0517972
thorax -13.0045 1.33008 -2.46533
lowerneck -8.38748 -2.85178 -6.25629
upperneck 11.5821 -3.6895 4.07573
head 5.0471 -1.87696 2.02842
rclavicle 5.59082e-016 4.77083e-015
rhumerus 5.46707 14.8789 -5.08325
rradius 82.4336
rwrist -33.3901
rhand 2.26816 -42.7702
rfingers 7.12502
rthumb 27.761 -70.7403
lclavicle 5.59082e-016 4.77083e-015
lhumerus 9.10408 2.69075 0.830991
lradius 92.5268
lwrist 31.5129
lhand -14.0798 -58.1095
lfingers 7.12502
lthumb 12.0522 -28.4765
rfemur -26.5483 16.61 16.381
rtibia 9.54166e-015
rfoot -29.3904 -35.9068
rtoes 65.1213
lfemur -39.1124 -30.4742 -0.54578
ltibia 19.8027
lfoot -44.1273 24.3577
ltoes 66.0251
212
root 8.64557 18.8516 0.113144 -169.858 0.39753 -176.839
lowerback 25.9506 1.38921 2.32867
upperback 1.22998 2.97076 0.0209127
thorax -13.0365 1.39789 -2.43883
lowerneck -8.39225 -2.94588 -6.438
upperneck 11.2151 -3.79985 4.35197
head 4.94914 -1.91271 2.13718
rclavicle -6.99163e-015 -1.04983e-015
rhumerus 1.79146 17.6218 -6.43718
rradius 82.1655
rwrist -33.9724
rhand 2.14217 -43.1594
rfingers 7.12502
rthumb 27.6405 -71.1489
lclavicle -6.99163e-015 -1.04983e-015
lhumerus 4.96052 0.348971 1.65898
lradius 94.9314
lwrist 30.4806
lhand -13.3757 -58.4785
lfingers 7.12502
lthumb 12.731 -28.8866
rfemur -26.5971 16.5272 16.3503
rtibia 1.74931e-014
rfoot -24.4306 -39.2515
rtoes 63.4505
lfemur -38.952 -29.8658 -0.755986
ltibia 19.2735
lfoot -42.7335 24.7551
ltoes 65.6052
213
root 8.6486 18.6214 -0.0592731 -170.261 0.0543476 -176.785
lowerback 26.5196 1.33834 2.39579
upperback 1.33283 2.98848 0.145147
thorax -13.2303 1.41467 -2.36753
lowerneck -7.94394 -2.9278 -6.76758
upperneck 10.5969 -3.76188 4.6181
head 4.69262 -1.88865 2.28318
rclavicle -2.58917e-014 1.31446e-014
rhumerus -2.14639 20.1926 -8.33481
rradius 81.8356
rwrist -34.3601
rhand 2.0485 -43.4739
rfingers 7.12502
rthumb 27.551 -71.4777
lclavicle -2.58917e-014 1.31446e-014
lhumerus 1.67132 -1.44596 2.36053
lradius 95.9275
lwrist 30.5825
lhand -12.1962 -57.8862
lfingers 7.12502
lthumb 13.8679 -28.3685
rfemur -26.5569 16.3256 16.3937
rtibia -1.27222e-014
rfoot -15.9748 -42.6336
rtoes 60.1392
lfemur -38.7367 -29.112 -1.01672
ltibia 18.6687
lfoot -39.561 26.2917
ltoes 64.5853
214
root 8.6527 18.3769 -0.233508 -170.579 -0.323845 -176.761
lowerback 26.8724 1.88968 2.71135
upperback 1.54582 2.82229 0.33225
thorax -13.1546 0.90993 -2.18174
lowerneck -8.10958 -3.12328 -7.0445
upperneck 10.2786 -3.9457 4.55255
head 4.63833 -1.9826 2.29368
rclavicle 3.57564e-014 -2.5842e-015
rhumerus -6.34443 22.098 -10.7049
rradius 81.3747
rwrist -34.2848
rhand 1.79168 -43.2184
rfingers 7.12502
rthumb 27.3053 -71.2611
lclavicle 3.57564e-014 -2.5842e-015
lhumerus -2.03691 -2.58245 3.88145
lradius 96.3253
lwrist 30.429
lhand -12.0513 -57.4438
lfingers 7.12502
lthumb 14.0076 -27.9358
rfemur -26.5262 16.0779 16.3448
rtibia -9.54166e-015
rfoot -6.41573 -44.2481
rtoes 56.1448
lfemur -38.4403 -27.9526 -1.55831
ltibia 18.0093
lfoot -34.7621 28.1683
ltoes 63.1205
215
root 8.65683 18.122 -0.408616 -170.831 -0.692008 -176.803
lowerback 27.0164 1.89217 2.73628
upperback 1.84882 2.796 0.453956
thorax -12.8829 0.889782 -2.04142
lowerneck -8.28159 -3.3312 -7.30872
upperneck 9.66297 -4.15959 4.74822
head 4.50097 -2.07011 2.3819
rclavicle -2.53947e-014 4.96962e-015
rhumerus -11.0003 23.3268 -13.6825
rradius 80.804
rwrist -33.4389
rhand 1.41984 -42.9549
rfingers 7.12502
rthumb 26.9496 -71.053
lclavicle -2.53947e-014 4.96962e-015
lhumerus -5.51565 -2.84133 5.82946
lradius 95.6722
lwrist 30.1593
lhand -12.2647 -57.3778
lfingers 7.12502
lthumb 13.802 -27.8556
rfemur -28.0604 15.7346 16.5492
rtibia 3.35199
rfoot 0.766025 -42.8931
rtoes 51.8607
lfemur -38.0565 -26.2776 -2.51292
ltibia 17.4237
lfoot -28.1562 30.3147
ltoes 60.8618
216
root 8.66144 17.8554 -0.588218 -171.103 -1.11499 -176.937
lowerback 27.1856 1.84826 2.69147
upperback 2.15383 2.67875 0.51705
thorax -12.6273 0.82866 -1.89592
lowerneck -8.90062 -3.48741 -7.32158
upperneck 9.30251 -4.29654 4.80445
head 4.50378 -2.11547 2.38444
rclavicle 3.08116e-015 9.74045e-015
rhumerus -15.6879 24.0609 -16.9862
rradius 79.9617
rwrist -32.4518
rhand 1.28108 -43.4598
rfingers 7.12502
rthumb 26.8168 -71.5784
lclavicle 3.08116e-015 9.74045e-015
lhumerus -11.063 -2.39284 8.10248
lradius 96.6349
lwrist 29.8565
lhand -12.5203 -57.3382
lfingers 7.12502
lthumb 13.5555 -27.7995
rfemur -29.1018 15.3376 16.5072
rtibia 5.81618
rfoot 7.97996 -41.0389
rtoes 45.1781
lfemur -37.574 -24.0629 -4.01307
ltibia 17.0317
lfoot -18.4245 32.3249
ltoes 55.8598
